<?xml version="1.0" encoding="UTF-8"?>
<svg version="1.1" xmlns="http://www.w3.org/2000/svg" width="500" height="500">
<path d="M0 0 C165 0 330 0 500 0 C500 165 500 330 500 500 C335 500 170 500 0 500 C0 335 0 170 0 0 Z " fill="#FEFEFE" transform="translate(0,0)"/>
<path d="M0 0 C4.07376031 1.61010527 6.76507069 4.53822271 9.75 7.625 C10.25660156 8.140625 10.76320313 8.65625 11.28515625 9.1875 C12.52803902 10.45383339 13.76465276 11.7263144 15 13 C18.80372688 11.56489425 22.29682541 9.79884971 25.875 7.875 C30.60837314 5.49375816 33.75043717 3.99476456 39 5 C40.9375 6.0625 40.9375 6.0625 42 8 C42.92877174 20.1182598 34.07363418 30.76936696 27.13671875 40.0390625 C25.47502193 42.34174292 24.13996684 44.41775466 23 47 C23.58910156 47.68707031 24.17820312 48.37414062 24.78515625 49.08203125 C25.91244141 50.43361328 25.91244141 50.43361328 27.0625 51.8125 C27.81660156 52.70582031 28.57070313 53.59914063 29.34765625 54.51953125 C29.89292969 55.33808594 30.43820312 56.15664063 31 57 C30.67 57.99 30.34 58.98 30 60 C26.78956118 58.61811547 24.95063635 57.07578097 22.75 54.375 C22.22921875 53.74335938 21.7084375 53.11171875 21.171875 52.4609375 C20.78515625 51.97882813 20.3984375 51.49671875 20 51 C16.09714233 52.58667578 13.66479018 55.13350481 10.75 58.125 C9.85796875 59.03507812 8.9659375 59.94515625 8.046875 60.8828125 C7.37140625 61.58148438 6.6959375 62.28015625 6 63 C9.11271732 71.14095298 21.13158709 77.0442167 28.5078125 80.9140625 C31.76033841 82.33130733 34.46953147 82.84309029 38 83 C36.9158179 76.79059342 35.31290591 72.26929999 31.92578125 66.9453125 C31 65 31 65 32 62 C36.8831813 63.6277271 38.31362821 68.22751222 40.53515625 72.62109375 C42.41577451 76.95905321 42.85597168 79.37775291 42 84 C41 86 41 86 39 87 C32.12066366 88.12570958 27.72995985 85.69530183 21.734375 82.41015625 C19.34152391 81.17612876 17.64507168 80.33143764 15 80 C12.8178451 81.94496415 10.93121579 83.82977235 9 86 C7.06878421 88.17022765 5.1821549 90.05503585 3 92 C-2.30548231 91.47921646 -5.0613838 86.95330109 -8.46484375 83.25 C-11.1586782 80.85917005 -12.42567691 80.0632115 -16 80 C-18.08461066 80.87097495 -18.08461066 80.87097495 -19.9375 82.3125 C-25.43550111 86.0190176 -30.26103384 87.76290183 -37 87 C-39 85.5625 -39 85.5625 -40 83 C-40.82915644 75.15618006 -36.66751884 68.0229337 -32 62 C-31.01 62 -30.02 62 -29 62 C-29.58745048 65.78804275 -30.70903219 68.5949213 -32.5625 71.9375 C-34.57823912 75.81258468 -35.58581068 78.54783886 -35 83 C-30.42103528 82.4648843 -27.21985494 81.2569042 -23.25 78.9375 C-18.19058824 76 -18.19058824 76 -16 76 C-16 75.34 -16 74.68 -16 74 C-14.35178756 72.96986723 -12.67888441 71.97934924 -11 71 C-8.29747111 69.04678596 -5.64606443 67.02886826 -3 65 C-4.41856248 61.66564695 -6.09931563 59.80434174 -8.875 57.5 C-11.75618634 55.08988215 -14.32267924 52.67732076 -17 50 C-19.64 53.3 -22.28 56.6 -25 60 C-25.99 59.67 -26.98 59.34 -28 59 C-27.27173981 54.74247888 -25.13022004 52.77257331 -22.1796875 49.78125 C-20.8112476 48.09180671 -20.8112476 48.09180671 -21.07421875 46.1015625 C-22.30528581 43.30698833 -23.99525698 41.22816967 -25.9375 38.875 C-26.64777344 38.00617188 -27.35804688 37.13734375 -28.08984375 36.2421875 C-29.9585703 33.98829106 -29.9585703 33.98829106 -32 32 C-32.68724346 30.34171213 -33.35151522 28.67382487 -34 27 C-34.84428544 25.41137568 -35.69867815 23.82808648 -36.5625 22.25 C-38.8296787 17.74928026 -40.67040615 13.122322 -40 8 C-38.9375 6.24609375 -38.9375 6.24609375 -37 5 C-31.38852135 4.2960268 -27.6015144 5.79475523 -22.8125 8.5 C-17.75494488 11.30339492 -17.75494488 11.30339492 -12 12 C-9.76484984 10.05437706 -7.77067449 8.14636238 -5.75 6 C-5.19570312 5.42765625 -4.64140625 4.8553125 -4.0703125 4.265625 C-2.70435878 2.85256943 -1.35094389 1.42741242 0 0 Z " fill="#45EFB3" transform="translate(249,204)"/>
<path d="M0 0 C1.09896528 1.09896528 2.19570529 2.20019582 3.28515625 3.30859375 C4.61772456 4.62294928 5.98748798 5.89963896 7.37109375 7.16015625 C8.19738281 7.93230469 9.02367187 8.70445312 9.875 9.5 C10.67679687 10.2321875 11.47859375 10.964375 12.3046875 11.71875 C14 14 14 14 14.19921875 16.32421875 C12.33456213 20.48477179 9.21222203 23.204235 5.9375 26.3125 C5.27427734 26.95767578 4.61105469 27.60285156 3.92773438 28.26757812 C2.29382329 29.85447018 0.65131853 31.43126328 -1 33 C0.19055769 36.09974028 1.50379685 38.98085215 3.125 41.875 C5.1491219 45.81828934 5.36536428 48.61562867 5 53 C-4.80310624 54.30708083 -12.62344848 47.48589787 -20.0625 41.875 C-20.62275879 41.45557129 -21.18301758 41.03614258 -21.76025391 40.60400391 C-24.8898754 38.16557535 -26.17244954 36.65510091 -28 33 C-23.71 28.71 -19.42 24.42 -15 20 C-11.34391167 21.82804416 -10.24772356 22.60629934 -7.875 25.625 C-6.43831282 27.50450961 -6.43831282 27.50450961 -5 29 C-4.34 29 -3.68 29 -3 29 C-4.40976705 25.96147295 -6.08870228 23.4060405 -8.125 20.75 C-8.66382813 20.04359375 -9.20265625 19.3371875 -9.7578125 18.609375 C-10.16773438 18.07828125 -10.57765625 17.5471875 -11 17 C-9.39458033 13.45294712 -7.2545274 10.49520749 -4.9375 7.375 C-2.24523621 3.82484836 -2.24523621 3.82484836 0 0 Z " fill="#5DA7E9" transform="translate(282,234)"/>
<path d="M0 0 C3.77611453 1.51726498 5.7694508 3.74151707 8.3125 6.875 C9.03050781 7.73867187 9.74851563 8.60234375 10.48828125 9.4921875 C12 12 12 12 11.921875 14.09765625 C10.5233964 16.98349981 8.46440119 19.00584439 6.27734375 21.31640625 C4.69778653 23.04611133 4.69778653 23.04611133 5 26 C5.66 26.33 6.32 26.66 7 27 C7.26554687 26.41734375 7.53109375 25.8346875 7.8046875 25.234375 C9.03302996 22.93825772 10.40314939 21.19643982 12.125 19.25 C12.66382813 18.63640625 13.20265625 18.0228125 13.7578125 17.390625 C14.16773438 16.93171875 14.57765625 16.4728125 15 16 C15.61875 16.639375 16.2375 17.27875 16.875 17.9375 C21.07201536 22.14668062 25.56422757 26.04656399 30 30 C28.75769501 33.72691498 27.17471905 34.76098441 24.125 37.1875 C23.24070313 37.90292969 22.35640625 38.61835938 21.4453125 39.35546875 C19 41 19 41 16 41 C16 41.66 16 42.32 16 43 C13.42362412 44.36907416 10.84031896 45.72028455 8.25 47.0625 C7.52039063 47.45244141 6.79078125 47.84238281 6.0390625 48.24414062 C5.33007812 48.60830078 4.62109375 48.97246094 3.890625 49.34765625 C3.24125977 49.68804932 2.59189453 50.02844238 1.92285156 50.37915039 C-0.41991018 51.13558044 -1.70456573 50.78821819 -4 50 C-3.84416294 43.87985382 -2.75424729 39.8133022 0.84375 34.82421875 C2.07269526 32.88530849 2.56471888 31.2407085 3 29 C2.34 29 1.68 29 1 29 C1 28.34 1 27.68 1 27 C0.17242187 26.65775391 0.17242187 26.65775391 -0.671875 26.30859375 C-3.67431736 24.62097934 -5.8113945 22.49040986 -8.25 20.0625 C-9.14203125 19.18722656 -10.0340625 18.31195313 -10.953125 17.41015625 C-13 15 -13 15 -13 12 C-11.42578125 10.3515625 -11.42578125 10.3515625 -9.3125 8.625 C-6.03135631 5.88002899 -2.97663714 3.06965705 0 0 Z " fill="#62D5B5" transform="translate(217,237)"/>
<path d="M0 0 C4.32504836 1.65863505 7.09418825 4.871041 10.25 8.125 C10.80429687 8.68832031 11.35859375 9.25164062 11.9296875 9.83203125 C13.29104485 11.21686028 14.64614859 12.60783204 16 14 C12.77901492 20.79176039 7.74275279 25.332979 2 30 C-2.32504836 28.34136495 -5.09418825 25.128959 -8.25 21.875 C-8.80429688 21.31167969 -9.35859375 20.74835938 -9.9296875 20.16796875 C-11.29104485 18.78313972 -12.64614859 17.39216796 -14 16 C-12.34136495 11.67495164 -9.128959 8.90581175 -5.875 5.75 C-5.31167969 5.19570312 -4.74835938 4.64140625 -4.16796875 4.0703125 C-2.78313972 2.70895515 -1.39216796 1.35385141 0 0 Z " fill="#F9FDFC" transform="translate(249,235)"/>
<path d="M0 0 C3.03852705 1.40976705 5.5939595 3.08870228 8.25 5.125 C8.95640625 5.66382813 9.6628125 6.20265625 10.390625 6.7578125 C10.92171875 7.16773438 11.4528125 7.57765625 12 8 C10.33536962 12.28642324 7.20924163 15.08617217 4 18.25 C3.4534375 18.80429688 2.906875 19.35859375 2.34375 19.9296875 C-1.7466133 24 -1.7466133 24 -4 24 C-5.43581474 22.38542921 -6.80144783 20.70780925 -8.125 19 C-9.21167969 17.6078125 -9.21167969 17.6078125 -10.3203125 16.1875 C-10.87460938 15.465625 -11.42890625 14.74375 -12 14 C-10.41332422 10.09714233 -7.86649519 7.66479018 -4.875 4.75 C-3.96492187 3.85796875 -3.05484375 2.9659375 -2.1171875 2.046875 C-1.41851562 1.37140625 -0.71984375 0.6959375 0 0 Z " fill="#F9FEFD" transform="translate(235,223)"/>
<path d="M0 0 C4.64580267 2.32290134 7.4653231 5.46367224 10.84570312 9.27539062 C12.38757323 10.97754057 12.38757323 10.97754057 15 13 C17.78812977 12.9808111 17.78812977 12.9808111 20 12 C19.77054687 12.57878906 19.54109375 13.15757812 19.3046875 13.75390625 C18.74405523 16.06712958 18.74405523 16.06712958 20.2578125 17.96484375 C20.87398438 18.61582031 21.49015625 19.26679688 22.125 19.9375 C22.76824219 20.62714844 23.41148437 21.31679687 24.07421875 22.02734375 C24.70972656 22.67832031 25.34523438 23.32929688 26 24 C26.52207031 24.53753906 27.04414063 25.07507813 27.58203125 25.62890625 C28.70706571 26.76690941 29.85119029 27.88600271 31 29 C30.01 29.99 29.02 30.98 28 32 C19.33333333 23.33333333 10.66666667 14.66666667 2 6 C-1.06713244 7.36242426 -3.11840293 8.89699705 -5.4375 11.3125 C-5.99308594 11.88613281 -6.54867187 12.45976562 -7.12109375 13.05078125 C-7.74113281 13.69402344 -8.36117187 14.33726562 -9 15 C-10.66666667 16.66666667 -12.33333333 18.33333333 -14 20 C-14.94243682 20.96383714 -15.88382112 21.92870441 -16.82421875 22.89453125 C-17.7786209 23.86721196 -18.73304812 24.83986808 -19.6875 25.8125 C-20.17283203 26.31458984 -20.65816406 26.81667969 -21.15820312 27.33398438 C-22.40124606 28.59417273 -23.69699892 29.80191044 -25 31 C-25.66 31 -26.32 31 -27 31 C-27.33 30.01 -27.66 29.02 -28 28 C-18.76 18.76 -9.52 9.52 0 0 Z " fill="#5DD9AC" transform="translate(249,204)"/>
<path d="M0 0 C4.56030824 3.80475422 8.85089392 7.74969621 13 12 C11.59023295 15.03852705 9.91129772 17.5939595 7.875 20.25 C7.33617187 20.95640625 6.79734375 21.6628125 6.2421875 22.390625 C5.83226562 22.92171875 5.42234375 23.4528125 5 24 C1.93213499 22.66356953 0.18416092 21.31089429 -1.875 18.6875 C-4.63950341 15.31649839 -7.57567344 12.6905423 -11 10 C-7.84778899 5.58690458 -4.44536093 2.99206986 0 0 Z " fill="#FAFEFC" transform="translate(264,223)"/>
<path d="M0 0 C0.61875 0.639375 1.2375 1.27875 1.875 1.9375 C6.07201536 6.14668062 10.56422757 10.04656399 15 14 C13.78934835 17.63195496 12.46308874 18.42896192 9.4375 20.6875 C8.61121094 21.31011719 7.78492188 21.93273437 6.93359375 22.57421875 C5.97646484 23.27998047 5.97646484 23.27998047 5 24 C1.09714233 22.41332422 -1.33520982 19.86649519 -4.25 16.875 C-5.14203125 15.96492188 -6.0340625 15.05484375 -6.953125 14.1171875 C-7.62859375 13.41851562 -8.3040625 12.71984375 -9 12 C-7.16045404 8.80151017 -5.25330318 5.95374361 -2.8125 3.1875 C-2.28269531 2.58292969 -1.75289062 1.97835937 -1.20703125 1.35546875 C-0.80871094 0.90816406 -0.41039062 0.46085938 0 0 Z " fill="#FAFEFD" transform="translate(232,253)"/>
<path d="M0 0 C3.21043882 1.38188453 5.04936365 2.92421903 7.25 5.625 C7.77078125 6.25664062 8.2915625 6.88828125 8.828125 7.5390625 C9.40820312 8.26222656 9.40820312 8.26222656 10 9 C8.42219077 12.71045247 6.09296752 15.29906384 3.375 18.25 C2.55773437 19.14203125 1.74046875 20.0340625 0.8984375 20.953125 C0.27195312 21.62859375 -0.35453125 22.3040625 -1 23 C-4.66060821 22.41463247 -6.54535164 20.916761 -9.25 18.4375 C-10.30960937 17.47650391 -10.30960937 17.47650391 -11.390625 16.49609375 C-11.92171875 16.00238281 -12.4528125 15.50867188 -13 15 C-11.38989473 10.92623969 -8.46177729 8.23492931 -5.375 5.25 C-4.859375 4.74339844 -4.34375 4.23679687 -3.8125 3.71484375 C-2.54616661 2.47196098 -1.2736856 1.23534724 0 0 Z " fill="#FCFEFD" transform="translate(267,254)"/>
<path d="M0 0 C2.55909965 1.47562618 4.60774556 3.05789689 6.78515625 5.05078125 C7.48253906 5.68242187 8.17992187 6.3140625 8.8984375 6.96484375 C9.67767578 7.68800781 9.67767578 7.68800781 10.47265625 8.42578125 C8.49195188 10.77621711 6.48684303 13.10400929 4.47265625 15.42578125 C3.77140625 16.25078125 3.07015625 17.07578125 2.34765625 17.92578125 C0.47265625 19.42578125 0.47265625 19.42578125 -1.34765625 19.3046875 C-4.36001444 18.09002694 -6.04014562 16.1991793 -8.27734375 13.86328125 C-9.47617188 12.62384766 -9.47617188 12.62384766 -10.69921875 11.359375 C-11.3025 10.72128906 -11.90578125 10.08320313 -12.52734375 9.42578125 C-11.35207161 5.89996483 -10.12706021 4.92985539 -7.27734375 2.61328125 C-6.12492188 1.64455078 -6.12492188 1.64455078 -4.94921875 0.65625 C-2.52734375 -0.57421875 -2.52734375 -0.57421875 0 0 Z " fill="#F9FCFD" transform="translate(251.52734375,271.57421875)"/>
<path d="M0 0 C3.3287315 1.40691484 5.13167372 3.00691581 7.3125 5.875 C7.84488281 6.55304688 8.37726563 7.23109375 8.92578125 7.9296875 C10 10 10 10 9.890625 11.9921875 C8.77194902 14.51411493 7.29956796 16.21865313 5.4375 18.25 C4.47650391 19.30960937 4.47650391 19.30960937 3.49609375 20.390625 C3.00238281 20.92171875 2.50867188 21.4528125 2 22 C-1.45201639 20.52278578 -3.64961936 18.56205999 -6.25 15.875 C-6.95640625 15.15054688 -7.6628125 14.42609375 -8.390625 13.6796875 C-8.92171875 13.12539062 -9.4528125 12.57109375 -10 12 C-8.52278578 8.54798361 -6.56205999 6.35038064 -3.875 3.75 C-3.15054688 3.04359375 -2.42609375 2.3371875 -1.6796875 1.609375 C-1.12539062 1.07828125 -0.57109375 0.5471875 0 0 Z " fill="#FBFEFD" transform="translate(219,239)"/>
<path d="M0 0 C3.45201639 1.47721422 5.64961936 3.43794001 8.25 6.125 C8.95640625 6.84945312 9.6628125 7.57390625 10.390625 8.3203125 C11.18726563 9.15175781 11.18726563 9.15175781 12 10 C10.64147869 13.08693704 9.15489047 15.08641734 6.625 17.3125 C6.03976563 17.84488281 5.45453125 18.37726563 4.8515625 18.92578125 C3 20 3 20 1.0703125 19.890625 C-1.56048496 18.75888571 -3.52502 17.23711617 -5.75 15.4375 C-6.54921875 14.79683594 -7.3484375 14.15617188 -8.171875 13.49609375 C-8.77515625 13.00238281 -9.3784375 12.50867188 -10 12 C-8.52278578 8.54798361 -6.56205999 6.35038064 -3.875 3.75 C-3.15054688 3.04359375 -2.42609375 2.3371875 -1.6796875 1.609375 C-1.12539062 1.07828125 -0.57109375 0.5471875 0 0 Z " fill="#FBFEFD" transform="translate(249,209)"/>
<path d="M0 0 C3.45201639 1.47721422 5.64961936 3.43794001 8.25 6.125 C8.95640625 6.84945312 9.6628125 7.57390625 10.390625 8.3203125 C11.18726563 9.15175781 11.18726563 9.15175781 12 10 C10.52278578 13.45201639 8.56205999 15.64961936 5.875 18.25 C5.15054687 18.95640625 4.42609375 19.6628125 3.6796875 20.390625 C3.12539063 20.92171875 2.57109375 21.4528125 2 22 C-1.45195767 20.5741914 -3.1014256 18.90253666 -5.25 15.875 C-6.03117187 14.78832031 -6.03117187 14.78832031 -6.828125 13.6796875 C-7.21484375 13.12539062 -7.6015625 12.57109375 -8 12 C-6.59023295 8.96147295 -4.91129772 6.4060405 -2.875 3.75 C-2.06675781 2.69039062 -2.06675781 2.69039062 -1.2421875 1.609375 C-0.83226562 1.07828125 -0.42234375 0.5471875 0 0 Z " fill="#FCFEFD" transform="translate(279,239)"/>
<path d="M0 0 C7.80801031 0.2518713 12.59128959 2.62495135 19 7 C17.52278578 10.45201639 15.56205999 12.64961936 12.875 15.25 C12.15054688 15.95640625 11.42609375 16.6628125 10.6796875 17.390625 C10.12539062 17.92171875 9.57109375 18.4528125 9 19 C4.40637903 17.46879301 3.41542021 14.01682667 1.23046875 9.87890625 C-0.33510064 6.21597089 -0.52047794 3.90358455 0 0 Z " fill="#F7FEFC" transform="translate(213,213)"/>
<path d="M0 0 C0.95971191 7.19783936 -2.33800119 11.97296029 -6 18 C-10.10746566 18 -11.19754861 16.36039564 -14.1875 13.625 C-15.08855469 12.81289062 -15.98960937 12.00078125 -16.91796875 11.1640625 C-19 9 -19 9 -19 7 C-13.11061074 2.72559926 -7.43451001 -1.18276296 0 0 Z " fill="#F8FDFB" transform="translate(287,213)"/>
<path d="M0 0 C0.67095703 0.58007812 0.67095703 0.58007812 1.35546875 1.171875 C4.8521026 4.18390075 8.37407463 7.14321031 12 10 C10.79306596 13.62080211 9.42262914 14.12535039 6.13085938 15.80078125 C5.48955078 16.11402344 4.84824219 16.42726563 4.1875 16.75 C3.55779297 17.07871094 2.92808594 17.40742188 2.27929688 17.74609375 C-2.39880415 20.07287222 -2.39880415 20.07287222 -5.44921875 19.703125 C-5.96097656 19.47109375 -6.47273437 19.2390625 -7 19 C-6.7481287 11.19198969 -4.37504865 6.40871041 0 0 Z " fill="#F9FEFD" transform="translate(220,268)"/>
<path d="M0 0 C4.1465803 3.92879772 7.5460704 8.23380289 8.25 14.07421875 C8.25 16 8.25 16 8 19 C0.80216064 19.95971191 -3.97296029 16.66199881 -10 13 C-10 10 -10 10 -7.8125 7.51953125 C-6.884375 6.62621094 -5.95625 5.73289062 -5 4.8125 C-4.071875 3.91144531 -3.14375 3.01039063 -2.1875 2.08203125 C-1.1046875 1.05142578 -1.1046875 1.05142578 0 0 Z " fill="#FBFEFC" transform="translate(279,268)"/>
<path d="M0 0 C1.08518111 0.91447846 2.16804738 1.83170407 3.25 2.75 C3.89066406 3.29269531 4.53132812 3.83539063 5.19140625 4.39453125 C7 6 7 6 9.1875 8.4375 C10.0846875 9.2109375 10.0846875 9.2109375 11 10 C15.78338492 9.62896176 18.01306913 5.98915242 21 2.6171875 C21.66 2.08351563 22.32 1.54984375 23 1 C25.25 1.2578125 25.25 1.2578125 27 2 C23.87172451 5.73867071 20.69826079 9.43269846 17.375 13 C16.55128906 13.8971875 16.55128906 13.8971875 15.7109375 14.8125 C14 16 14 16 12.10546875 15.9921875 C9.09913503 14.57547365 7.23347185 12.51447296 4.9375 10.125 C4.08027344 9.24070312 3.22304687 8.35640625 2.33984375 7.4453125 C1.56769531 6.63835937 0.79554688 5.83140625 0 5 C-0.99676552 3.99677595 -1.99506993 2.99504551 -3 2 C-2.01 1.34 -1.02 0.68 0 0 Z " fill="#57A5E7" transform="translate(238,280)"/>
<path d="M0 0 C2 1.625 2 1.625 3 4 C2.92818703 7.51883536 2.62670668 9.30614617 0.25 11.9375 C-2 13 -2 13 -4.5625 12.875 C-7.24955992 11.91041439 -8.43467041 11.38918727 -10 9 C-10.38976435 5.88188517 -10.50422245 3.88980433 -8.9375 1.125 C-5.85928089 -0.66235303 -3.47093932 -0.43386742 0 0 Z " fill="#51C3BC" transform="translate(254,244)"/>
<path d="M0 0 C4 1 4 1 6 4 C5.8540104 7.50375047 5.61007704 9.34784868 3.1875 11.9375 C1 13 1 13 -1.25 12.6875 C-1.8275 12.460625 -2.405 12.23375 -3 12 C-2.01 12 -1.02 12 0 12 C0 8.04 0 4.08 0 0 Z " fill="#59B4D5" transform="translate(251,244)"/>
<path d="M0 0 C1.485 0.99 1.485 0.99 3 2 C2.625 4.9375 2.625 4.9375 2 8 C1.01 8.495 1.01 8.495 0 9 C0 6.03 0 3.06 0 0 Z " fill="#62AFE3" transform="translate(254,246)"/>
</svg>
